<svg id="Vincent" width="600" height="950" style="color:blue; border-style: dotted;" xmlns="http://www.w3.org/2000/svg"><desc>Created with Snap</desc><defs><pattern x="0" y="0" width="10" height="10" patternUnits="userSpaceOnUse" id="patternSkvbz9qp82r" viewBox="0 0 10 10"><path d="M15-5-10,18 M15,0,0" style="stroke-width: 3px;" fill="none" stroke="#000000"></path></pattern></defs><rect x="120" y="80" width="450" height="750" style="stroke-width: 1px;" fill="#ffffff" stroke="#000000"></rect><rect x="130" y="224" width="430" height="462" style="stroke-width: 1px;" fill="#ffffff" stroke="#000000"></rect><rect x="135" y="313" width="135" height="160" style="stroke-width: 1px;" fill="#ffffff" stroke="#000000"></rect><rect x="135" y="483" width="135" height="160" style="stroke-width: 1px;" fill="#ffffff" stroke="#000000"></rect><rect x="130" y="80" width="430" height="127" style="stroke-width: 1px;" fill="#ffffff" stroke="#000000"></rect><rect x="130" y="703" width="430" height="127" style="stroke-width: 1px;" fill="#ffffff" stroke="#000000"></rect><rect x="295" y="397" width="20" height="20" style="stroke-width: 1px;" fill="#ffffff" stroke="#000000"></rect><rect x="315" y="397" width="20" height="20" style="stroke-width: 1px;" fill="#ffffff" stroke="#000000"></rect><rect x="295" y="422.4" width="20" height="20" style="stroke-width: 1px;" fill="#ffffff" stroke="#000000"></rect><rect x="315" y="422.4" width="20" height="20" style="stroke-width: 1px;" fill="#ffffff" stroke="#000000"></rect><rect x="295" y="447.8" width="20" height="20" style="stroke-width: 1px;" fill="#ffffff" stroke="#000000"></rect><rect x="315" y="447.8" width="20" height="20" style="stroke-width: 1px;" fill="#ffffff" stroke="#000000"></rect><rect x="295" y="473.2" width="20" height="20" style="stroke-width: 1px;" fill="#ffffff" stroke="#000000"></rect><rect x="315" y="473.2" width="20" height="20" style="stroke-width: 1px;" fill="#ffffff" stroke="#000000"></rect><rect x="295" y="498.6" width="20" height="20" style="stroke-width: 1px;" fill="#ffffff" stroke="#000000"></rect><rect x="315" y="498.6" width="20" height="20" style="stroke-width: 1px;" fill="#ffffff" stroke="#000000"></rect><rect x="295" y="524" width="20" height="20" style="stroke-width: 1px;" fill="#ffffff" stroke="#000000"></rect><rect x="315" y="524" width="20" height="20" style="stroke-width: 1px;" fill="#ffffff" stroke="#000000"></rect><rect x="295" y="549.4" width="20" height="20" style="stroke-width: 1px;" fill="#ffffff" stroke="#000000"></rect><rect x="315" y="549.4" width="20" height="20" style="stroke-width: 1px;" fill="#ffffff" stroke="#000000"></rect><rect x="295" y="574.8" width="20" height="20" style="stroke-width: 1px;" fill="url('#patternSkvbz9qp82r')" stroke="#000000"></rect><rect x="315" y="574.8" width="20" height="20" style="stroke-width: 1px;" fill="#ffffff" stroke="#000000"></rect><text x="270" y="590.8" style="font-size: 18px;" transform="matrix(0,-1,1,0,-301.8,867.8)">ON</text><g style="font-size: 25px;"><text x="345" y="592.8" transform="matrix(0,-1,1,0,-238.3,936.3)">1</text><text x="345" y="567.4" transform="matrix(0,-1,1,0,-212.9,910.9)">2</text><text x="345" y="542" transform="matrix(0,-1,1,0,-187.5,885.5)">3</text><text x="345" y="516.6" transform="matrix(0,-1,1,0,-162.1,860.1)">4</text><text x="345" y="491.2" transform="matrix(0,-1,1,0,-136.7,834.7)">5</text><text x="345" y="465.8" transform="matrix(0,-1,1,0,-111.3,809.3)">6</text><text x="345" y="440.4" transform="matrix(0,-1,1,0,-85.9,783.9)">7</text><text x="345" y="415" transform="matrix(0,-1,1,0,-60.5,758.5)">8</text></g><g style="font-size: 25px;"><text x="515" y="130">1</text><text x="465" y="130">2</text><text x="415" y="130">3</text><text x="365" y="130">4</text><text x="315" y="130">5</text><text x="265" y="130">6</text><text x="215" y="130">7</text><text x="165" y="130">8</text></g><g style="font-size: 25px;"><text x="165" y="799">9</text><text x="207" y="799">10</text><text x="257" y="799">11</text><text x="307" y="799">12</text><text x="357" y="799">13</text><text x="407" y="799">14</text><text x="457" y="799">15</text><text x="507" y="799">16</text></g><circle cx="170" cy="152" r="15" style="stroke-width: 1px;" fill="#ffffff" stroke="#000000"></circle><line x1="160" x2="180" y1="162" y2="142" style="stroke-width: 1px;" stroke="#000000"></line><circle cx="220" cy="153" r="15" style="stroke-width: 1px;" fill="#ffffff" stroke="#000000"></circle><line x1="210" x2="230" y1="163" y2="143" style="stroke-width: 1px;" stroke="#000000"></line><circle cx="270" cy="154" r="15" style="stroke-width: 1px;" fill="#ffffff" stroke="#000000"></circle><line x1="260" x2="280" y1="164" y2="144" style="stroke-width: 1px;" stroke="#000000"></line><circle cx="320" cy="155" r="15" style="stroke-width: 1px;" fill="#ffffff" stroke="#000000"></circle><line x1="310" x2="330" y1="165" y2="145" style="stroke-width: 1px;" stroke="#000000"></line><circle cx="370" cy="156" r="15" style="stroke-width: 1px;" fill="#ffffff" stroke="#000000"></circle><line x1="360" x2="380" y1="166" y2="146" style="stroke-width: 1px;" stroke="#000000"></line><circle cx="420" cy="157" r="15" style="stroke-width: 1px;" fill="#ffffff" stroke="#000000"></circle><line x1="410" x2="430" y1="167" y2="147" style="stroke-width: 1px;" stroke="#000000"></line><circle cx="470" cy="158" r="15" style="stroke-width: 1px;" fill="#ffffff" stroke="#000000"></circle><line x1="460" x2="480" y1="168" y2="148" style="stroke-width: 1px;" stroke="#000000"></line><circle cx="520" cy="159" r="15" style="stroke-width: 1px;" fill="#ffffff" stroke="#000000"></circle><line x1="510" x2="530" y1="169" y2="149" style="stroke-width: 1px;" stroke="#000000"></line><circle cx="170" cy="756" r="15" style="stroke-width: 1px;" fill="#ffffff" stroke="#000000"></circle><line x1="160" x2="180" y1="766" y2="746" style="stroke-width: 1px;" stroke="#000000"></line><circle cx="220" cy="757" r="15" style="stroke-width: 1px;" fill="#ffffff" stroke="#000000"></circle><line x1="210" x2="230" y1="767" y2="747" style="stroke-width: 1px;" stroke="#000000"></line><circle cx="270" cy="758" r="15" style="stroke-width: 1px;" fill="#ffffff" stroke="#000000"></circle><line x1="260" x2="280" y1="768" y2="748" style="stroke-width: 1px;" stroke="#000000"></line><circle cx="320" cy="759" r="15" style="stroke-width: 1px;" fill="#ffffff" stroke="#000000"></circle><line x1="310" x2="330" y1="769" y2="749" style="stroke-width: 1px;" stroke="#000000"></line><circle cx="370" cy="760" r="15" style="stroke-width: 1px;" fill="#ffffff" stroke="#000000"></circle><line x1="360" x2="380" y1="770" y2="750" style="stroke-width: 1px;" stroke="#000000"></line><circle cx="420" cy="761" r="15" style="stroke-width: 1px;" fill="#ffffff" stroke="#000000"></circle><line x1="410" x2="430" y1="771" y2="751" style="stroke-width: 1px;" stroke="#000000"></line><circle cx="470" cy="762" r="15" style="stroke-width: 1px;" fill="#ffffff" stroke="#000000"></circle><line x1="460" x2="480" y1="772" y2="752" style="stroke-width: 1px;" stroke="#000000"></line><circle cx="520" cy="763" r="15" style="stroke-width: 1px;" fill="#ffffff" stroke="#000000"></circle><line x1="510" x2="530" y1="773" y2="753" style="stroke-width: 1px;" stroke="#000000"></line><g style="stroke-width: 1px;" fill="#ffffff" stroke="#000000"><rect x="292" y="231" width="130" height="90"></rect><circle cx="357" cy="276" r="35"></circle><circle cx="357" cy="276" r="25"></circle><circle cx="357" cy="276" r="15"></circle></g><circle cx="316" cy="637" r="15" style="stroke-width: 1px;" fill="#ffffff" stroke="#000000"></circle><circle cx="428" cy="371" r="15" style="stroke-width: 1px;" fill="#ffffff" stroke="#000000"></circle><circle cx="428" cy="620" r="15" style="stroke-width: 1px;" fill="#ffffff" stroke="#000000"></circle><text x="120" y="100">-2A11</text><text x="120" y="230">XS30</text><text x="120" y="330">XS33</text><text x="120" y="430">XS39</text><text x="375" y="670">dipadres=1</text><text x="540" y="380" style="font-size: 25px;" transform="matrix(0,1,-1,0,920,-160)">848</text></svg>