<svg id="VincentPro" width="550" height="1800" style="color:blue; border-style: dotted;" transform="matrix(1,0,0,1,0,0)" xmlns="http://www.w3.org/2000/svg"><desc>Created with Snap</desc><defs><pattern x="0" y="0" width="10" height="10" patternUnits="userSpaceOnUse" id="patternSkvhs269o3" viewBox="0 0 10 10"><path d="M15-5-10,18 M15,0,0" style="stroke-width: 3px;" fill="none" stroke="#000000"></path></pattern></defs><rect x="50" y="500" width="450" height="750" style="stroke-width: 1px;" fill="#ffffff" stroke="#000000"></rect><rect x="60" y="644" width="430" height="462" style="stroke-width: 1px;" fill="#ffffff" stroke="#000000"></rect><rect x="65" y="733" width="135" height="160" style="stroke-width: 1px;" fill="#ffffff" stroke="#000000"></rect><rect x="65" y="903" width="135" height="160" style="stroke-width: 1px;" fill="#ffffff" stroke="#000000"></rect><rect x="60" y="500" width="430" height="127" style="stroke-width: 1px;" fill="#ffffff" stroke="#000000"></rect><rect x="60" y="1123" width="430" height="127" style="stroke-width: 1px;" fill="#ffffff" stroke="#000000"></rect><polyline points="0,0,0,80,20,80,20,110,85,110,85,80,105,80,105,0,0,0" style="stroke-width: 1px;" stroke="#000000" fill="none" transform="matrix(1,0,0,1,80,760)"></polyline><polyline points="0,0,0,80,20,80,20,110,85,110,85,80,105,80,105,0,0,0" style="stroke-width: 1px;" stroke="#000000" fill="none" transform="matrix(1,0,0,1,80,930)"></polyline><g style="font-size: 25px; font-family: arial;"><text x="452" y="543" style="text-anchor: middle;" transform="matrix(1,0,0,1,0,0)">1</text><text x="402" y="543" style="text-anchor: middle;" transform="matrix(1,0,0,1,0,0)">2</text><text x="352" y="543" style="text-anchor: middle;" transform="matrix(1,0,0,1,0,0)">3</text><text x="302" y="543" style="text-anchor: middle;" transform="matrix(1,0,0,1,0,0)">4</text><text x="252" y="543" style="text-anchor: middle;" transform="matrix(1,0,0,1,0,0)">5</text><text x="202" y="543" style="text-anchor: middle;" transform="matrix(1,0,0,1,0,0)">6</text><text x="152" y="543" style="text-anchor: middle;" transform="matrix(1,0,0,1,0,0)">7</text><text x="100" y="543" style="text-anchor: middle;" transform="matrix(1,0,0,1,0,0)">8</text></g><g style="font-size: 25px; font-family: arial;"><text x="100" y="1219" style="text-anchor: middle;" transform="matrix(1,0,0,1,0,0)">9</text><text x="150" y="1219" style="text-anchor: middle;" transform="matrix(1,0,0,1,0,0)">10</text><text x="200" y="1219" style="text-anchor: middle;" transform="matrix(1,0,0,1,0,0)">11</text><text x="250" y="1219" style="text-anchor: middle;" transform="matrix(1,0,0,1,0,0)">12</text><text x="300" y="1219" style="text-anchor: middle;" transform="matrix(1,0,0,1,0,0)">13</text><text x="350" y="1219" style="text-anchor: middle;" transform="matrix(1,0,0,1,0,0)">14</text><text x="400" y="1219" style="text-anchor: middle;" transform="matrix(1,0,0,1,0,0)">15</text><text x="450" y="1219" style="text-anchor: middle;" transform="matrix(1,0,0,1,0,0)">16</text></g><circle cx="100" cy="572" r="15" style="stroke-width: 1px;" fill="#ffffff" stroke="#000000"></circle><line x1="90" x2="110" y1="582" y2="562" style="stroke-width: 1px;" stroke="#000000"></line><circle cx="150" cy="572" r="15" style="stroke-width: 1px;" fill="#ffffff" stroke="#000000"></circle><line x1="140" x2="160" y1="582" y2="562" style="stroke-width: 1px;" stroke="#000000"></line><circle cx="200" cy="572" r="15" style="stroke-width: 1px;" fill="#ffffff" stroke="#000000"></circle><line x1="190" x2="210" y1="582" y2="562" style="stroke-width: 1px;" stroke="#000000"></line><circle cx="250" cy="572" r="15" style="stroke-width: 1px;" fill="#ffffff" stroke="#000000"></circle><line x1="240" x2="260" y1="582" y2="562" style="stroke-width: 1px;" stroke="#000000"></line><circle cx="300" cy="572" r="15" style="stroke-width: 1px;" fill="#ffffff" stroke="#000000"></circle><line x1="290" x2="310" y1="582" y2="562" style="stroke-width: 1px;" stroke="#000000"></line><circle cx="350" cy="572" r="15" style="stroke-width: 1px;" fill="#ffffff" stroke="#000000"></circle><line x1="340" x2="360" y1="582" y2="562" style="stroke-width: 1px;" stroke="#000000"></line><circle cx="400" cy="572" r="15" style="stroke-width: 1px;" fill="#ffffff" stroke="#000000"></circle><line x1="390" x2="410" y1="582" y2="562" style="stroke-width: 1px;" stroke="#000000"></line><circle cx="450" cy="572" r="15" style="stroke-width: 1px;" fill="#ffffff" stroke="#000000"></circle><line x1="440" x2="460" y1="582" y2="562" style="stroke-width: 1px;" stroke="#000000"></line><circle cx="100" cy="1176" r="15" style="stroke-width: 1px;" fill="#ffffff" stroke="#000000"></circle><line x1="90" x2="110" y1="1186" y2="1166" style="stroke-width: 1px;" stroke="#000000"></line><circle cx="150" cy="1176" r="15" style="stroke-width: 1px;" fill="#ffffff" stroke="#000000"></circle><line x1="140" x2="160" y1="1186" y2="1166" style="stroke-width: 1px;" stroke="#000000"></line><circle cx="200" cy="1176" r="15" style="stroke-width: 1px;" fill="#ffffff" stroke="#000000"></circle><line x1="190" x2="210" y1="1186" y2="1166" style="stroke-width: 1px;" stroke="#000000"></line><circle cx="250" cy="1176" r="15" style="stroke-width: 1px;" fill="#ffffff" stroke="#000000"></circle><line x1="240" x2="260" y1="1186" y2="1166" style="stroke-width: 1px;" stroke="#000000"></line><circle cx="300" cy="1176" r="15" style="stroke-width: 1px;" fill="#ffffff" stroke="#000000"></circle><line x1="290" x2="310" y1="1186" y2="1166" style="stroke-width: 1px;" stroke="#000000"></line><circle cx="350" cy="1176" r="15" style="stroke-width: 1px;" fill="#ffffff" stroke="#000000"></circle><line x1="340" x2="360" y1="1186" y2="1166" style="stroke-width: 1px;" stroke="#000000"></line><circle cx="400" cy="1176" r="15" style="stroke-width: 1px;" fill="#ffffff" stroke="#000000"></circle><line x1="390" x2="410" y1="1186" y2="1166" style="stroke-width: 1px;" stroke="#000000"></line><circle cx="450" cy="1176" r="15" style="stroke-width: 1px;" fill="#ffffff" stroke="#000000"></circle><line x1="440" x2="460" y1="1186" y2="1166" style="stroke-width: 1px;" stroke="#000000"></line><circle cx="100" cy="675" r="12.5" style="stroke-width: 1px;" fill="#ffffff" stroke="#000000"></circle><circle cx="150" cy="675" r="12.5" style="stroke-width: 1px;" fill="#ffffff" stroke="#000000"></circle><circle cx="200" cy="675" r="12.5" style="stroke-width: 1px;" fill="#ffffff" stroke="#000000"></circle><circle cx="250" cy="675" r="12.5" style="stroke-width: 1px;" fill="#ffffff" stroke="#000000"></circle><circle cx="300" cy="675" r="12.5" style="stroke-width: 1px;" fill="#ffffff" stroke="#000000"></circle><circle cx="350" cy="675" r="12.5" style="stroke-width: 1px;" fill="#ffffff" stroke="#000000"></circle><circle cx="400" cy="675" r="12.5" style="stroke-width: 1px;" fill="#ffffff" stroke="#000000"></circle><circle cx="450" cy="675" r="12.5" style="stroke-width: 1px;" fill="#ffffff" stroke="#000000"></circle><circle cx="100" cy="1081" r="12.5" style="stroke-width: 1px;" fill="#ffffff" stroke="#000000"></circle><circle cx="150" cy="1081" r="12.5" style="stroke-width: 1px;" fill="#ffffff" stroke="#000000"></circle><circle cx="200" cy="1081" r="12.5" style="stroke-width: 1px;" fill="#ffffff" stroke="#000000"></circle><circle cx="250" cy="1081" r="12.5" style="stroke-width: 1px;" fill="#ffffff" stroke="#000000"></circle><circle cx="300" cy="1081" r="12.5" style="stroke-width: 1px;" fill="#ffffff" stroke="#000000"></circle><circle cx="350" cy="1081" r="12.5" style="stroke-width: 1px;" fill="#ffffff" stroke="#000000"></circle><g style="stroke-width: 1px;" fill="#ffffff" stroke="#000000"><rect x="222" y="751" width="130" height="90"></rect><rect x="222" y="826" width="30" height="15" style="stroke-width: 1px;" fill="#ffffff" stroke="#000000"></rect><rect x="222" y="751" width="30" height="15" style="stroke-width: 1px;" fill="#ffffff" stroke="#000000"></rect><rect x="322" y="751" width="30" height="15" style="stroke-width: 1px;" fill="#ffffff" stroke="#000000"></rect><rect x="322" y="826" width="30" height="15" style="stroke-width: 1px;" fill="#ffffff" stroke="#000000"></rect><circle cx="287" cy="796" r="35"></circle><circle cx="287" cy="796" r="25"></circle><circle cx="287" cy="796" r="15"></circle></g><text x="367" y="805" style="font-size: 25px; font-family: arial; text-anchor: middle;" transform="matrix(0,-1,1,0,-429,1163)">XS72</text><text x="275" y="615" style="font-size: 25px; font-family: arial; text-anchor: middle;" transform="matrix(1,0,0,1,0,0)">XS70</text><text x="130" y="820" style="font-size: 25px; font-family: arial; text-anchor: middle;" transform="matrix(1,0,0,1,0,0)">XS73</text><text x="130" y="990" style="font-size: 25px; font-family: arial; text-anchor: middle;" transform="matrix(1,0,0,1,0,0)">XS74</text><text x="275" y="1155" style="font-size: 25px; text-anchor: middle; font-family: arial;" transform="matrix(1,0,0,1,0,0)">XS70</text><text x="200" y="1010.8" style="font-family: arial; font-size: 18px;" transform="matrix(0,-1,1,0,-791.3,1218.3)">ON</text><rect x="225" y="994.8" width="20" height="20" style="stroke-width: 1px;" fill="url('#patternSkvhs269o3')" stroke="#000000"></rect><rect x="245" y="994.8" width="20" height="20" style="stroke-width: 1px;" fill="#ffffff" stroke="#000000"></rect><text x="275" y="1012.8" style="font-family: arial; font-size: 25px;" transform="matrix(0,-1,1,0,-721.85,1285.75)">1</text><rect x="225" y="969.4" width="20" height="20" style="stroke-width: 1px;" fill="url('#patternSkvhs269o3')" stroke="#000000"></rect><rect x="245" y="969.4" width="20" height="20" style="stroke-width: 1px;" fill="#ffffff" stroke="#000000"></rect><text x="275" y="987.4" style="font-family: arial; font-size: 25px;" transform="matrix(0,-1,1,0,-696.45,1260.35)">2</text><rect x="225" y="944" width="20" height="20" style="stroke-width: 1px;" fill="url('#patternSkvhs269o3')" stroke="#000000"></rect><rect x="245" y="944" width="20" height="20" style="stroke-width: 1px;" fill="#ffffff" stroke="#000000"></rect><text x="275" y="962" style="font-family: arial; font-size: 25px;" transform="matrix(0,-1,1,0,-671.05,1234.95)">3</text><rect x="225" y="918.6" width="20" height="20" style="stroke-width: 1px;" fill="#ffffff" stroke="#000000"></rect><rect x="245" y="918.6" width="20" height="20" style="stroke-width: 1px;" fill="url('#patternSkvhs269o3')" stroke="#000000"></rect><text x="275" y="936.6" style="font-family: arial; font-size: 25px;" transform="matrix(0,-1,1,0,-645.65,1209.55)">4</text><rect x="225" y="893.2" width="20" height="20" style="stroke-width: 1px;" fill="#ffffff" stroke="#000000"></rect><rect x="245" y="893.2" width="20" height="20" style="stroke-width: 1px;" fill="url('#patternSkvhs269o3')" stroke="#000000"></rect><text x="275" y="911.2" style="font-family: arial; font-size: 25px;" transform="matrix(0,-1,1,0,-620.25,1184.15)">5</text><text x="275" y="480" style="font-size: 50px; font-family: arial; text-anchor: middle;" transform="matrix(1,0,0,1,0,0)">-3A9</text><text x="201" y="399.59999999999997" style="font-size: 36px; font-family: arial; text-anchor: middle;" transform="matrix(0,-1,1,0,-186.1,588.1)">ON</text><rect x="230" y="365.59999999999997" width="40" height="40" style="stroke-width: 1px;" fill="url('#patternSkvhs269o3')" stroke="#000000"></rect><rect x="270" y="365.59999999999997" width="40" height="40" style="stroke-width: 1px;" fill="#ffffff" stroke="#000000"></rect><text x="330" y="401.59999999999997" style="font-family: arial; font-size: 50px;" transform="matrix(0,-1,1,0,-40.7,728.5)">1</text><rect x="230" y="314.79999999999995" width="40" height="40" style="stroke-width: 1px;" fill="url('#patternSkvhs269o3')" stroke="#000000"></rect><rect x="270" y="314.79999999999995" width="40" height="40" style="stroke-width: 1px;" fill="#ffffff" stroke="#000000"></rect><text x="330" y="350.79999999999995" style="font-family: arial; font-size: 50px;" transform="matrix(0,-1,1,0,10.1,677.7)">2</text><rect x="230" y="264" width="40" height="40" style="stroke-width: 1px;" fill="url('#patternSkvhs269o3')" stroke="#000000"></rect><rect x="270" y="264" width="40" height="40" style="stroke-width: 1px;" fill="#ffffff" stroke="#000000"></rect><text x="330" y="300" style="font-family: arial; font-size: 50px;" transform="matrix(0,-1,1,0,60.9,626.9)">3</text><rect x="230" y="213.2" width="40" height="40" style="stroke-width: 1px;" fill="#ffffff" stroke="#000000"></rect><rect x="270" y="213.2" width="40" height="40" style="stroke-width: 1px;" fill="url('#patternSkvhs269o3')" stroke="#000000"></rect><text x="330" y="249.2" style="font-family: arial; font-size: 50px;" transform="matrix(0,-1,1,0,111.7,576.1)">4</text><rect x="230" y="162.39999999999998" width="40" height="40" style="stroke-width: 1px;" fill="#ffffff" stroke="#000000"></rect><rect x="270" y="162.39999999999998" width="40" height="40" style="stroke-width: 1px;" fill="url('#patternSkvhs269o3')" stroke="#000000"></rect><text x="330" y="198.39999999999998" style="font-family: arial; font-size: 50px;" transform="matrix(0,-1,1,0,162.5,525.3)">5</text></svg>
